<svg width="27" height="27" viewBox="0 0 27 27" fill="none" xmlns="http://www.w3.org/2000/svg">
<g clip-path="url(#clip0_0_180)">
<path d="M25.7615 24.5394H1.22704C0.54918 24.5394 0 25.0886 0 25.767C0 26.4443 0.54918 26.9935 1.22704 26.9935H25.7609C26.4388 26.9935 26.9879 26.4443 26.9879 25.767C26.9874 25.0886 26.4382 24.5394 25.7615 24.5394Z" fill="url(#paint0_linear_0_180)"/>
<path d="M2.76041 21.3496C2.08255 21.3496 1.53337 21.8988 1.53337 22.5766C1.53337 23.2545 2.08255 23.8042 2.76041 23.8042H24.2278C24.9057 23.8042 25.4549 23.2545 25.4549 22.5766C25.4549 21.8988 24.9057 21.3496 24.2278 21.3496H23.9216V10.3085H24.2278C24.5673 10.3085 24.8408 10.0339 24.8408 9.69559C24.8408 9.35723 24.5662 9.08264 24.2278 9.08264H2.76041C2.42148 9.08264 2.14746 9.35723 2.14746 9.69559C2.14746 10.0339 2.42205 10.3085 2.76041 10.3085H3.06717V21.349H2.76041V21.3496ZM21.4676 10.3085V21.349H17.7876V10.3085H21.4676ZM15.3335 10.3085V21.349H11.6536V10.3085H15.3335ZM5.52009 10.3085H9.20006V21.349H5.52009V10.3085Z" fill="url(#paint1_linear_0_180)"/>
<path d="M1.22702 7.97926H25.7609C25.7649 7.97926 25.7695 7.97926 25.7729 7.97926C26.4514 7.97926 27 7.43008 27 6.75223C27 6.21339 26.653 5.75669 26.171 5.59125L13.9983 0.113814C13.6783 -0.0298 13.3124 -0.0298 12.9919 0.113814L0.723792 5.63376C0.195867 5.87158 -0.0942332 6.44489 0.0275514 7.01016C0.148762 7.57542 0.648538 7.97926 1.22702 7.97926Z" fill="url(#paint2_linear_0_180)"/>
</g>
<defs>
<linearGradient id="paint0_linear_0_180" x1="14.8434" y1="24.1531" x2="14.856" y2="28.5049" gradientUnits="userSpaceOnUse">
<stop stop-color="#FD749B"/>
<stop offset="1" stop-color="#281AC8"/>
</linearGradient>
<linearGradient id="paint1_linear_0_180" x1="14.6902" y1="6.76536" x2="15.2017" y2="32.8607" gradientUnits="userSpaceOnUse">
<stop stop-color="#FD749B"/>
<stop offset="1" stop-color="#281AC8"/>
</linearGradient>
<linearGradient id="paint2_linear_0_180" x1="14.85" y1="-1.24893" x2="14.9829" y2="12.8884" gradientUnits="userSpaceOnUse">
<stop stop-color="#FD749B"/>
<stop offset="1" stop-color="#281AC8"/>
</linearGradient>
<clipPath id="clip0_0_180">
<rect width="27" height="27" fill="white"/>
</clipPath>
</defs>
</svg>
