<svg width="12" height="13" viewBox="0 0 12 13" fill="none" xmlns="http://www.w3.org/2000/svg">
<path opacity="0.8" fill-rule="evenodd" clip-rule="evenodd" d="M11.9999 12.2822C11.9999 12.6785 11.7034 13 11.3376 13H8.27969V7.96565H9.83954L10.0733 6.0039H8.27969V4.75106C8.27969 4.18307 8.42547 3.79603 9.17729 3.79603L10.1363 3.79568V2.04072C9.9703 2.017 9.4012 1.96353 8.73895 1.96353C7.35626 1.96353 6.40962 2.87783 6.40962 4.55701V6.0039H4.84584V7.96565H6.40962V13H0.662132C0.296356 13 -0.00012207 12.6785 -0.00012207 12.2822V0.717776C-0.00012207 0.321176 0.296356 0 0.662132 0H11.3376C11.7034 0 11.9999 0.321176 11.9999 0.717776V12.2822Z" fill="white"/>
</svg>
