<svg width="14" height="9" viewBox="0 0 14 9" fill="none" xmlns="http://www.w3.org/2000/svg">
<path opacity="0.8" fill-rule="evenodd" clip-rule="evenodd" d="M4.44659 5.3911V3.6089H8.71705C9.01437 5.76541 8.11719 9 4.44659 9C1.99096 9 -0.00012207 6.98508 -0.00012207 4.49982C-0.00012207 2.01456 1.99096 0 4.44659 0C5.59877 0 6.6486 0.443358 7.43858 1.17096C6.82665 1.75594 6.63036 1.97911 6.46367 2.16861C6.37689 2.26727 6.29814 2.3568 6.17295 2.48351C5.71603 2.10113 5.21783 1.82671 4.44659 1.82671C2.98771 1.82671 1.84906 3.0236 1.84906 4.49982C1.84906 5.9764 2.98771 7.17329 4.44659 7.17329C5.88811 7.17329 6.47375 6.54418 6.85052 5.38864C6.15491 5.38864 4.44659 5.3911 4.44659 5.3911ZM12.4591 2.13863V3.69792H13.9999V4.81175H12.4591V6.4159H11.3586V4.81175H9.77348V3.69792H11.3586V2.13863H12.4591Z" fill="white"/>
</svg>
