<svg width="12" height="13" viewBox="0 0 12 13" fill="none" xmlns="http://www.w3.org/2000/svg">
<path opacity="0.8" fill-rule="evenodd" clip-rule="evenodd" d="M10.5735 0H1.42628C0.638451 0 -0.00012207 0.690014 -0.00012207 1.54172V11.4583C-0.00012207 12.3096 0.638451 13 1.42628 13H10.5735C11.3613 13 11.9999 12.3096 11.9999 11.4583V1.54172C11.9999 0.690014 11.3613 0 10.5735 0ZM8.62503 2.03104C8.62503 1.80694 8.79294 1.62504 8.9998 1.62504H10.1247C10.3319 1.62504 10.4998 1.80694 10.4998 2.03104V3.25009C10.4998 3.47418 10.3319 3.65608 10.1247 3.65608H8.9998C8.79294 3.65608 8.62503 3.47418 8.62503 3.25009V2.03104ZM6.01379 4.02095C7.28832 4.02095 8.32162 5.13788 8.32162 6.51507C8.32162 7.89262 7.28832 9.00919 6.01379 9.00919C4.73959 9.00919 3.70628 7.89262 3.70628 6.51507C3.70628 5.13788 4.73959 4.02095 6.01379 4.02095ZM10.8749 11.375C10.8749 11.5991 10.707 11.7813 10.4998 11.7813H1.49992C1.29273 11.7813 1.12483 11.5991 1.12483 11.375V5.28113H2.62487C2.42947 5.58571 2.36335 6.15411 2.36335 6.51507C2.36335 8.69042 4.00119 10.4605 6.01379 10.4605C8.02672 10.4605 9.66455 8.69042 9.66455 6.51507C9.66455 6.15411 9.61709 5.59458 9.37489 5.28113H10.8749V11.375Z" fill="white"/>
</svg>
