<svg width="114" height="25" viewBox="0 0 114 25" fill="none" xmlns="http://www.w3.org/2000/svg">
<mask id="path-1-outside-1_0_57" maskUnits="userSpaceOnUse" x="36.0109" y="8.37451" width="78" height="14" fill="black">
<rect fill="white" x="36.0109" y="8.37451" width="78" height="14"/>
<path d="M37.0109 16.0961C37.0109 14.9867 37.2626 13.9915 37.7659 13.1105C38.2692 12.2187 38.9531 11.5226 39.8175 11.0223C40.6929 10.522 41.6612 10.2718 42.7226 10.2718C43.97 10.2718 45.0587 10.5709 45.9887 11.1691C46.9188 11.7673 47.5972 12.6157 48.0239 13.7142H46.2349C45.9176 13.029 45.458 12.5015 44.8562 12.1317C44.2654 11.7619 43.5542 11.577 42.7226 11.577C41.9238 11.577 41.2071 11.7619 40.5725 12.1317C39.9379 12.5015 39.44 13.029 39.0789 13.7142C38.7179 14.3885 38.5373 15.1825 38.5373 16.0961C38.5373 16.9989 38.7179 17.7928 39.0789 18.478C39.44 19.1524 39.9379 19.6744 40.5725 20.0442C41.2071 20.414 41.9238 20.5989 42.7226 20.5989C43.5542 20.5989 44.2654 20.4195 44.8562 20.0606C45.458 19.6908 45.9176 19.1633 46.2349 18.478H48.0239C47.5972 19.5657 46.9188 20.4086 45.9887 21.0068C45.0587 21.5941 43.97 21.8878 42.7226 21.8878C41.6612 21.8878 40.6929 21.6431 39.8175 21.1536C38.9531 20.6533 38.2692 19.9627 37.7659 19.0817C37.2626 18.2007 37.0109 17.2055 37.0109 16.0961Z"/>
<path d="M54.1699 21.9367C53.3273 21.9367 52.5614 21.7464 51.8721 21.3657C51.1937 20.985 50.6575 20.4467 50.2636 19.7506C49.8807 19.0436 49.6892 18.2279 49.6892 17.3034C49.6892 16.3898 49.8861 15.5849 50.28 14.8888C50.6849 14.1819 51.232 13.6435 51.9213 13.2737C52.6106 12.893 53.382 12.7027 54.2355 12.7027C55.089 12.7027 55.8604 12.893 56.5497 13.2737C57.2391 13.6435 57.7807 14.1764 58.1746 14.8725C58.5794 15.5686 58.7819 16.3789 58.7819 17.3034C58.7819 18.2279 58.574 19.0436 58.1582 19.7506C57.7533 20.4467 57.2008 20.985 56.5005 21.3657C55.8002 21.7464 55.0233 21.9367 54.1699 21.9367ZM54.1699 20.6316C54.706 20.6316 55.2093 20.5065 55.6798 20.2563C56.1503 20.0062 56.5278 19.6309 56.8123 19.1306C57.1078 18.6303 57.2555 18.0212 57.2555 17.3034C57.2555 16.5855 57.1132 15.9765 56.8287 15.4762C56.5442 14.9758 56.1722 14.606 55.7127 14.3668C55.2531 14.1166 54.7553 13.9915 54.2191 13.9915C53.672 13.9915 53.1687 14.1166 52.7091 14.3668C52.2605 14.606 51.8994 14.9758 51.6259 15.4762C51.3523 15.9765 51.2156 16.5855 51.2156 17.3034C51.2156 18.0321 51.3469 18.6466 51.6095 19.1469C51.883 19.6472 52.2441 20.0225 52.6927 20.2726C53.1413 20.5119 53.6337 20.6316 54.1699 20.6316Z"/>
<path d="M61.517 11.3975C61.2325 11.3975 60.9918 11.2996 60.7949 11.1039C60.5979 10.9081 60.4994 10.6688 60.4994 10.386C60.4994 10.1032 60.5979 9.86395 60.7949 9.66817C60.9918 9.4724 61.2325 9.37451 61.517 9.37451C61.7906 9.37451 62.0204 9.4724 62.2064 9.66817C62.4033 9.86395 62.5018 10.1032 62.5018 10.386C62.5018 10.6688 62.4033 10.9081 62.2064 11.1039C62.0204 11.2996 61.7906 11.3975 61.517 11.3975ZM62.2392 12.8495V21.7899H60.7456V12.8495H62.2392Z"/>
<path d="M69.1669 12.6864C70.2611 12.6864 71.1474 13.0181 71.8258 13.6816C72.5042 14.3341 72.8434 15.2804 72.8434 16.5203V21.7899H71.3662V16.7324C71.3662 15.8405 71.1419 15.1607 70.6933 14.6931C70.2447 14.2145 69.632 13.9752 68.8551 13.9752C68.0673 13.9752 67.4381 14.2199 66.9676 14.7094C66.5081 15.1988 66.2783 15.9112 66.2783 16.8466V21.7899H64.7847V12.8495H66.2783V14.122C66.5737 13.6652 66.9731 13.3118 67.4764 13.0616C67.9907 12.8114 68.5542 12.6864 69.1669 12.6864Z"/>
<path d="M81.0112 15.933C81.427 15.9982 81.8045 16.1668 82.1437 16.4387C82.4938 16.7106 82.7674 17.0478 82.9643 17.4502C83.1722 17.8526 83.2762 18.2823 83.2762 18.7391C83.2762 19.3155 83.1284 19.8376 82.833 20.3053C82.5376 20.7621 82.1054 21.1264 81.5364 21.3983C80.9784 21.6594 80.3164 21.7899 79.5505 21.7899H75.2831V10.4186H79.3863C80.1632 10.4186 80.8252 10.5492 81.3723 10.8102C81.9194 11.0603 82.3297 11.403 82.6032 11.838C82.8768 12.2731 83.0136 12.7625 83.0136 13.3063C83.0136 13.9807 82.8275 14.5408 82.4555 14.9867C82.0944 15.4218 81.613 15.7372 81.0112 15.933ZM76.7767 15.3293H79.2879C79.9881 15.3293 80.5298 15.1662 80.9127 14.8399C81.2957 14.5136 81.4872 14.0622 81.4872 13.4858C81.4872 12.9093 81.2957 12.458 80.9127 12.1317C80.5298 11.8054 79.9772 11.6422 79.255 11.6422H76.7767V15.3293ZM79.4192 20.5663C80.1632 20.5663 80.7431 20.3923 81.1589 20.0442C81.5747 19.6962 81.7826 19.2122 81.7826 18.5922C81.7826 17.9614 81.5638 17.4665 81.1261 17.1076C80.6884 16.7378 80.103 16.5529 79.3699 16.5529H76.7767V20.5663H79.4192Z"/>
<path d="M84.7908 17.2871C84.7908 16.3735 84.9768 15.574 85.3488 14.8888C85.7208 14.1927 86.2296 13.6544 86.8752 13.2737C87.5317 12.893 88.2593 12.7027 89.0581 12.7027C89.8459 12.7027 90.5298 12.8713 91.1097 13.2084C91.6896 13.5456 92.1218 13.9698 92.4063 14.481V12.8495H93.9163V21.7899H92.4063V20.1258C92.1109 20.6479 91.6677 21.0829 91.0769 21.431C90.4969 21.7681 89.8185 21.9367 89.0417 21.9367C88.2429 21.9367 87.5208 21.741 86.8752 21.3494C86.2296 20.9579 85.7208 20.4086 85.3488 19.7016C84.9768 18.9947 84.7908 18.1898 84.7908 17.2871ZM92.4063 17.3034C92.4063 16.6291 92.2695 16.0417 91.996 15.5414C91.7224 15.0411 91.3504 14.6604 90.8799 14.3994C90.4203 14.1275 89.9115 13.9915 89.3535 13.9915C88.7955 13.9915 88.2867 14.1221 87.8271 14.3831C87.3676 14.6441 87.001 15.0248 86.7275 15.5251C86.4539 16.0254 86.3171 16.6127 86.3171 17.2871C86.3171 17.9723 86.4539 18.5705 86.7275 19.0817C87.001 19.582 87.3676 19.9681 87.8271 20.24C88.2867 20.501 88.7955 20.6316 89.3535 20.6316C89.9115 20.6316 90.4203 20.501 90.8799 20.24C91.3504 19.9681 91.7224 19.582 91.996 19.0817C92.2695 18.5705 92.4063 17.9777 92.4063 17.3034Z"/>
<path d="M99.6243 21.9367C98.935 21.9367 98.3168 21.8225 97.7697 21.5941C97.2226 21.3548 96.7904 21.0285 96.4731 20.6152C96.1558 20.1911 95.9807 19.7071 95.9479 19.1633H97.4907C97.5344 19.6092 97.7423 19.9735 98.1144 20.2563C98.4973 20.5391 98.9952 20.6805 99.6079 20.6805C100.177 20.6805 100.626 20.5554 100.954 20.3053C101.282 20.0551 101.446 19.7397 101.446 19.359C101.446 18.9675 101.271 18.6793 100.921 18.4944C100.571 18.2986 100.029 18.1082 99.2961 17.9233C98.6286 17.7493 98.0815 17.5753 97.6548 17.4013C97.239 17.2164 96.8779 16.9499 96.5716 16.6019C96.2761 16.2429 96.1284 15.7753 96.1284 15.1988C96.1284 14.742 96.2652 14.3233 96.5387 13.9426C96.8123 13.5619 97.2007 13.2628 97.704 13.0453C98.2074 12.8169 98.7818 12.7027 99.4274 12.7027C100.423 12.7027 101.227 12.9528 101.84 13.4532C102.453 13.9535 102.781 14.6387 102.825 15.5088H101.331C101.298 15.0411 101.107 14.6659 100.757 14.3831C100.418 14.1003 99.9581 13.9589 99.3781 13.9589C98.842 13.9589 98.4153 14.0731 98.0979 14.3015C97.7806 14.5299 97.622 14.829 97.622 15.1988C97.622 15.4925 97.715 15.7372 97.901 15.933C98.0979 16.1179 98.3387 16.2701 98.6231 16.3898C98.9186 16.4985 99.3234 16.6236 99.8377 16.765C100.483 16.939 101.008 17.1131 101.413 17.2871C101.818 17.4502 102.163 17.7004 102.447 18.0375C102.743 18.3747 102.896 18.8152 102.907 19.359C102.907 19.8485 102.77 20.289 102.497 20.6805C102.223 21.0721 101.835 21.382 101.331 21.6104C100.839 21.828 100.27 21.9367 99.6243 21.9367Z"/>
<path d="M113.222 16.9771C113.222 17.2599 113.205 17.559 113.172 17.8744H105.984C106.038 18.7554 106.339 19.446 106.886 19.9463C107.444 20.4358 108.117 20.6805 108.905 20.6805C109.551 20.6805 110.087 20.5337 110.514 20.24C110.951 19.9355 111.258 19.533 111.433 19.0327H113.041C112.8 19.892 112.319 20.5935 111.597 21.1373C110.875 21.6703 109.977 21.9367 108.905 21.9367C108.052 21.9367 107.286 21.7464 106.607 21.3657C105.94 20.985 105.415 20.4467 105.032 19.7506C104.649 19.0436 104.457 18.2279 104.457 17.3034C104.457 16.3789 104.643 15.5686 105.015 14.8725C105.387 14.1764 105.907 13.6435 106.575 13.2737C107.253 12.893 108.03 12.7027 108.905 12.7027C109.759 12.7027 110.514 12.8876 111.17 13.2574C111.827 13.6272 112.33 14.1384 112.68 14.7909C113.041 15.4327 113.222 16.1614 113.222 16.9771ZM111.679 16.6671C111.679 16.1016 111.553 15.6176 111.301 15.2151C111.05 14.8018 110.705 14.4918 110.267 14.2852C109.841 14.0677 109.365 13.9589 108.839 13.9589C108.084 13.9589 107.439 14.1982 106.903 14.6767C106.378 15.1553 106.077 15.8188 106 16.6671H111.679Z"/>
</mask>
<path d="M37.0109 16.0961C37.0109 14.9867 37.2626 13.9915 37.7659 13.1105C38.2692 12.2187 38.9531 11.5226 39.8175 11.0223C40.6929 10.522 41.6612 10.2718 42.7226 10.2718C43.97 10.2718 45.0587 10.5709 45.9887 11.1691C46.9188 11.7673 47.5972 12.6157 48.0239 13.7142H46.2349C45.9176 13.029 45.458 12.5015 44.8562 12.1317C44.2654 11.7619 43.5542 11.577 42.7226 11.577C41.9238 11.577 41.2071 11.7619 40.5725 12.1317C39.9379 12.5015 39.44 13.029 39.0789 13.7142C38.7179 14.3885 38.5373 15.1825 38.5373 16.0961C38.5373 16.9989 38.7179 17.7928 39.0789 18.478C39.44 19.1524 39.9379 19.6744 40.5725 20.0442C41.2071 20.414 41.9238 20.5989 42.7226 20.5989C43.5542 20.5989 44.2654 20.4195 44.8562 20.0606C45.458 19.6908 45.9176 19.1633 46.2349 18.478H48.0239C47.5972 19.5657 46.9188 20.4086 45.9887 21.0068C45.0587 21.5941 43.97 21.8878 42.7226 21.8878C41.6612 21.8878 40.6929 21.6431 39.8175 21.1536C38.9531 20.6533 38.2692 19.9627 37.7659 19.0817C37.2626 18.2007 37.0109 17.2055 37.0109 16.0961Z" fill="white"/>
<path d="M54.1699 21.9367C53.3273 21.9367 52.5614 21.7464 51.8721 21.3657C51.1937 20.985 50.6575 20.4467 50.2636 19.7506C49.8807 19.0436 49.6892 18.2279 49.6892 17.3034C49.6892 16.3898 49.8861 15.5849 50.28 14.8888C50.6849 14.1819 51.232 13.6435 51.9213 13.2737C52.6106 12.893 53.382 12.7027 54.2355 12.7027C55.089 12.7027 55.8604 12.893 56.5497 13.2737C57.2391 13.6435 57.7807 14.1764 58.1746 14.8725C58.5794 15.5686 58.7819 16.3789 58.7819 17.3034C58.7819 18.2279 58.574 19.0436 58.1582 19.7506C57.7533 20.4467 57.2008 20.985 56.5005 21.3657C55.8002 21.7464 55.0233 21.9367 54.1699 21.9367ZM54.1699 20.6316C54.706 20.6316 55.2093 20.5065 55.6798 20.2563C56.1503 20.0062 56.5278 19.6309 56.8123 19.1306C57.1078 18.6303 57.2555 18.0212 57.2555 17.3034C57.2555 16.5855 57.1132 15.9765 56.8287 15.4762C56.5442 14.9758 56.1722 14.606 55.7127 14.3668C55.2531 14.1166 54.7553 13.9915 54.2191 13.9915C53.672 13.9915 53.1687 14.1166 52.7091 14.3668C52.2605 14.606 51.8994 14.9758 51.6259 15.4762C51.3523 15.9765 51.2156 16.5855 51.2156 17.3034C51.2156 18.0321 51.3469 18.6466 51.6095 19.1469C51.883 19.6472 52.2441 20.0225 52.6927 20.2726C53.1413 20.5119 53.6337 20.6316 54.1699 20.6316Z" fill="white"/>
<path d="M61.517 11.3975C61.2325 11.3975 60.9918 11.2996 60.7949 11.1039C60.5979 10.9081 60.4994 10.6688 60.4994 10.386C60.4994 10.1032 60.5979 9.86395 60.7949 9.66817C60.9918 9.4724 61.2325 9.37451 61.517 9.37451C61.7906 9.37451 62.0204 9.4724 62.2064 9.66817C62.4033 9.86395 62.5018 10.1032 62.5018 10.386C62.5018 10.6688 62.4033 10.9081 62.2064 11.1039C62.0204 11.2996 61.7906 11.3975 61.517 11.3975ZM62.2392 12.8495V21.7899H60.7456V12.8495H62.2392Z" fill="white"/>
<path d="M69.1669 12.6864C70.2611 12.6864 71.1474 13.0181 71.8258 13.6816C72.5042 14.3341 72.8434 15.2804 72.8434 16.5203V21.7899H71.3662V16.7324C71.3662 15.8405 71.1419 15.1607 70.6933 14.6931C70.2447 14.2145 69.632 13.9752 68.8551 13.9752C68.0673 13.9752 67.4381 14.2199 66.9676 14.7094C66.5081 15.1988 66.2783 15.9112 66.2783 16.8466V21.7899H64.7847V12.8495H66.2783V14.122C66.5737 13.6652 66.9731 13.3118 67.4764 13.0616C67.9907 12.8114 68.5542 12.6864 69.1669 12.6864Z" fill="white"/>
<path d="M81.0112 15.933C81.427 15.9982 81.8045 16.1668 82.1437 16.4387C82.4938 16.7106 82.7674 17.0478 82.9643 17.4502C83.1722 17.8526 83.2762 18.2823 83.2762 18.7391C83.2762 19.3155 83.1284 19.8376 82.833 20.3053C82.5376 20.7621 82.1054 21.1264 81.5364 21.3983C80.9784 21.6594 80.3164 21.7899 79.5505 21.7899H75.2831V10.4186H79.3863C80.1632 10.4186 80.8252 10.5492 81.3723 10.8102C81.9194 11.0603 82.3297 11.403 82.6032 11.838C82.8768 12.2731 83.0136 12.7625 83.0136 13.3063C83.0136 13.9807 82.8275 14.5408 82.4555 14.9867C82.0944 15.4218 81.613 15.7372 81.0112 15.933ZM76.7767 15.3293H79.2879C79.9881 15.3293 80.5298 15.1662 80.9127 14.8399C81.2957 14.5136 81.4872 14.0622 81.4872 13.4858C81.4872 12.9093 81.2957 12.458 80.9127 12.1317C80.5298 11.8054 79.9772 11.6422 79.255 11.6422H76.7767V15.3293ZM79.4192 20.5663C80.1632 20.5663 80.7431 20.3923 81.1589 20.0442C81.5747 19.6962 81.7826 19.2122 81.7826 18.5922C81.7826 17.9614 81.5638 17.4665 81.1261 17.1076C80.6884 16.7378 80.103 16.5529 79.3699 16.5529H76.7767V20.5663H79.4192Z" fill="white"/>
<path d="M84.7908 17.2871C84.7908 16.3735 84.9768 15.574 85.3488 14.8888C85.7208 14.1927 86.2296 13.6544 86.8752 13.2737C87.5317 12.893 88.2593 12.7027 89.0581 12.7027C89.8459 12.7027 90.5298 12.8713 91.1097 13.2084C91.6896 13.5456 92.1218 13.9698 92.4063 14.481V12.8495H93.9163V21.7899H92.4063V20.1258C92.1109 20.6479 91.6677 21.0829 91.0769 21.431C90.4969 21.7681 89.8185 21.9367 89.0417 21.9367C88.2429 21.9367 87.5208 21.741 86.8752 21.3494C86.2296 20.9579 85.7208 20.4086 85.3488 19.7016C84.9768 18.9947 84.7908 18.1898 84.7908 17.2871ZM92.4063 17.3034C92.4063 16.6291 92.2695 16.0417 91.996 15.5414C91.7224 15.0411 91.3504 14.6604 90.8799 14.3994C90.4203 14.1275 89.9115 13.9915 89.3535 13.9915C88.7955 13.9915 88.2867 14.1221 87.8271 14.3831C87.3676 14.6441 87.001 15.0248 86.7275 15.5251C86.4539 16.0254 86.3171 16.6127 86.3171 17.2871C86.3171 17.9723 86.4539 18.5705 86.7275 19.0817C87.001 19.582 87.3676 19.9681 87.8271 20.24C88.2867 20.501 88.7955 20.6316 89.3535 20.6316C89.9115 20.6316 90.4203 20.501 90.8799 20.24C91.3504 19.9681 91.7224 19.582 91.996 19.0817C92.2695 18.5705 92.4063 17.9777 92.4063 17.3034Z" fill="white"/>
<path d="M99.6243 21.9367C98.935 21.9367 98.3168 21.8225 97.7697 21.5941C97.2226 21.3548 96.7904 21.0285 96.4731 20.6152C96.1558 20.1911 95.9807 19.7071 95.9479 19.1633H97.4907C97.5344 19.6092 97.7423 19.9735 98.1144 20.2563C98.4973 20.5391 98.9952 20.6805 99.6079 20.6805C100.177 20.6805 100.626 20.5554 100.954 20.3053C101.282 20.0551 101.446 19.7397 101.446 19.359C101.446 18.9675 101.271 18.6793 100.921 18.4944C100.571 18.2986 100.029 18.1082 99.2961 17.9233C98.6286 17.7493 98.0815 17.5753 97.6548 17.4013C97.239 17.2164 96.8779 16.9499 96.5716 16.6019C96.2761 16.2429 96.1284 15.7753 96.1284 15.1988C96.1284 14.742 96.2652 14.3233 96.5387 13.9426C96.8123 13.5619 97.2007 13.2628 97.704 13.0453C98.2074 12.8169 98.7818 12.7027 99.4274 12.7027C100.423 12.7027 101.227 12.9528 101.84 13.4532C102.453 13.9535 102.781 14.6387 102.825 15.5088H101.331C101.298 15.0411 101.107 14.6659 100.757 14.3831C100.418 14.1003 99.9581 13.9589 99.3781 13.9589C98.842 13.9589 98.4153 14.0731 98.0979 14.3015C97.7806 14.5299 97.622 14.829 97.622 15.1988C97.622 15.4925 97.715 15.7372 97.901 15.933C98.0979 16.1179 98.3387 16.2701 98.6231 16.3898C98.9186 16.4985 99.3234 16.6236 99.8377 16.765C100.483 16.939 101.008 17.1131 101.413 17.2871C101.818 17.4502 102.163 17.7004 102.447 18.0375C102.743 18.3747 102.896 18.8152 102.907 19.359C102.907 19.8485 102.77 20.289 102.497 20.6805C102.223 21.0721 101.835 21.382 101.331 21.6104C100.839 21.828 100.27 21.9367 99.6243 21.9367Z" fill="white"/>
<path d="M113.222 16.9771C113.222 17.2599 113.205 17.559 113.172 17.8744H105.984C106.038 18.7554 106.339 19.446 106.886 19.9463C107.444 20.4358 108.117 20.6805 108.905 20.6805C109.551 20.6805 110.087 20.5337 110.514 20.24C110.951 19.9355 111.258 19.533 111.433 19.0327H113.041C112.8 19.892 112.319 20.5935 111.597 21.1373C110.875 21.6703 109.977 21.9367 108.905 21.9367C108.052 21.9367 107.286 21.7464 106.607 21.3657C105.94 20.985 105.415 20.4467 105.032 19.7506C104.649 19.0436 104.457 18.2279 104.457 17.3034C104.457 16.3789 104.643 15.5686 105.015 14.8725C105.387 14.1764 105.907 13.6435 106.575 13.2737C107.253 12.893 108.03 12.7027 108.905 12.7027C109.759 12.7027 110.514 12.8876 111.17 13.2574C111.827 13.6272 112.33 14.1384 112.68 14.7909C113.041 15.4327 113.222 16.1614 113.222 16.9771ZM111.679 16.6671C111.679 16.1016 111.553 15.6176 111.301 15.2151C111.05 14.8018 110.705 14.4918 110.267 14.2852C109.841 14.0677 109.365 13.9589 108.839 13.9589C108.084 13.9589 107.439 14.1982 106.903 14.6767C106.378 15.1553 106.077 15.8188 106 16.6671H111.679Z" fill="white"/>
<path d="M37.0109 16.0961C37.0109 14.9867 37.2626 13.9915 37.7659 13.1105C38.2692 12.2187 38.9531 11.5226 39.8175 11.0223C40.6929 10.522 41.6612 10.2718 42.7226 10.2718C43.97 10.2718 45.0587 10.5709 45.9887 11.1691C46.9188 11.7673 47.5972 12.6157 48.0239 13.7142H46.2349C45.9176 13.029 45.458 12.5015 44.8562 12.1317C44.2654 11.7619 43.5542 11.577 42.7226 11.577C41.9238 11.577 41.2071 11.7619 40.5725 12.1317C39.9379 12.5015 39.44 13.029 39.0789 13.7142C38.7179 14.3885 38.5373 15.1825 38.5373 16.0961C38.5373 16.9989 38.7179 17.7928 39.0789 18.478C39.44 19.1524 39.9379 19.6744 40.5725 20.0442C41.2071 20.414 41.9238 20.5989 42.7226 20.5989C43.5542 20.5989 44.2654 20.4195 44.8562 20.0606C45.458 19.6908 45.9176 19.1633 46.2349 18.478H48.0239C47.5972 19.5657 46.9188 20.4086 45.9887 21.0068C45.0587 21.5941 43.97 21.8878 42.7226 21.8878C41.6612 21.8878 40.6929 21.6431 39.8175 21.1536C38.9531 20.6533 38.2692 19.9627 37.7659 19.0817C37.2626 18.2007 37.0109 17.2055 37.0109 16.0961Z" stroke="white" stroke-width="0.4" mask="url(#path-1-outside-1_0_57)"/>
<path d="M54.1699 21.9367C53.3273 21.9367 52.5614 21.7464 51.8721 21.3657C51.1937 20.985 50.6575 20.4467 50.2636 19.7506C49.8807 19.0436 49.6892 18.2279 49.6892 17.3034C49.6892 16.3898 49.8861 15.5849 50.28 14.8888C50.6849 14.1819 51.232 13.6435 51.9213 13.2737C52.6106 12.893 53.382 12.7027 54.2355 12.7027C55.089 12.7027 55.8604 12.893 56.5497 13.2737C57.2391 13.6435 57.7807 14.1764 58.1746 14.8725C58.5794 15.5686 58.7819 16.3789 58.7819 17.3034C58.7819 18.2279 58.574 19.0436 58.1582 19.7506C57.7533 20.4467 57.2008 20.985 56.5005 21.3657C55.8002 21.7464 55.0233 21.9367 54.1699 21.9367ZM54.1699 20.6316C54.706 20.6316 55.2093 20.5065 55.6798 20.2563C56.1503 20.0062 56.5278 19.6309 56.8123 19.1306C57.1078 18.6303 57.2555 18.0212 57.2555 17.3034C57.2555 16.5855 57.1132 15.9765 56.8287 15.4762C56.5442 14.9758 56.1722 14.606 55.7127 14.3668C55.2531 14.1166 54.7553 13.9915 54.2191 13.9915C53.672 13.9915 53.1687 14.1166 52.7091 14.3668C52.2605 14.606 51.8994 14.9758 51.6259 15.4762C51.3523 15.9765 51.2156 16.5855 51.2156 17.3034C51.2156 18.0321 51.3469 18.6466 51.6095 19.1469C51.883 19.6472 52.2441 20.0225 52.6927 20.2726C53.1413 20.5119 53.6337 20.6316 54.1699 20.6316Z" stroke="white" stroke-width="0.4" mask="url(#path-1-outside-1_0_57)"/>
<path d="M61.517 11.3975C61.2325 11.3975 60.9918 11.2996 60.7949 11.1039C60.5979 10.9081 60.4994 10.6688 60.4994 10.386C60.4994 10.1032 60.5979 9.86395 60.7949 9.66817C60.9918 9.4724 61.2325 9.37451 61.517 9.37451C61.7906 9.37451 62.0204 9.4724 62.2064 9.66817C62.4033 9.86395 62.5018 10.1032 62.5018 10.386C62.5018 10.6688 62.4033 10.9081 62.2064 11.1039C62.0204 11.2996 61.7906 11.3975 61.517 11.3975ZM62.2392 12.8495V21.7899H60.7456V12.8495H62.2392Z" stroke="white" stroke-width="0.4" mask="url(#path-1-outside-1_0_57)"/>
<path d="M69.1669 12.6864C70.2611 12.6864 71.1474 13.0181 71.8258 13.6816C72.5042 14.3341 72.8434 15.2804 72.8434 16.5203V21.7899H71.3662V16.7324C71.3662 15.8405 71.1419 15.1607 70.6933 14.6931C70.2447 14.2145 69.632 13.9752 68.8551 13.9752C68.0673 13.9752 67.4381 14.2199 66.9676 14.7094C66.5081 15.1988 66.2783 15.9112 66.2783 16.8466V21.7899H64.7847V12.8495H66.2783V14.122C66.5737 13.6652 66.9731 13.3118 67.4764 13.0616C67.9907 12.8114 68.5542 12.6864 69.1669 12.6864Z" stroke="white" stroke-width="0.4" mask="url(#path-1-outside-1_0_57)"/>
<path d="M81.0112 15.933C81.427 15.9982 81.8045 16.1668 82.1437 16.4387C82.4938 16.7106 82.7674 17.0478 82.9643 17.4502C83.1722 17.8526 83.2762 18.2823 83.2762 18.7391C83.2762 19.3155 83.1284 19.8376 82.833 20.3053C82.5376 20.7621 82.1054 21.1264 81.5364 21.3983C80.9784 21.6594 80.3164 21.7899 79.5505 21.7899H75.2831V10.4186H79.3863C80.1632 10.4186 80.8252 10.5492 81.3723 10.8102C81.9194 11.0603 82.3297 11.403 82.6032 11.838C82.8768 12.2731 83.0136 12.7625 83.0136 13.3063C83.0136 13.9807 82.8275 14.5408 82.4555 14.9867C82.0944 15.4218 81.613 15.7372 81.0112 15.933ZM76.7767 15.3293H79.2879C79.9881 15.3293 80.5298 15.1662 80.9127 14.8399C81.2957 14.5136 81.4872 14.0622 81.4872 13.4858C81.4872 12.9093 81.2957 12.458 80.9127 12.1317C80.5298 11.8054 79.9772 11.6422 79.255 11.6422H76.7767V15.3293ZM79.4192 20.5663C80.1632 20.5663 80.7431 20.3923 81.1589 20.0442C81.5747 19.6962 81.7826 19.2122 81.7826 18.5922C81.7826 17.9614 81.5638 17.4665 81.1261 17.1076C80.6884 16.7378 80.103 16.5529 79.3699 16.5529H76.7767V20.5663H79.4192Z" stroke="white" stroke-width="0.4" mask="url(#path-1-outside-1_0_57)"/>
<path d="M84.7908 17.2871C84.7908 16.3735 84.9768 15.574 85.3488 14.8888C85.7208 14.1927 86.2296 13.6544 86.8752 13.2737C87.5317 12.893 88.2593 12.7027 89.0581 12.7027C89.8459 12.7027 90.5298 12.8713 91.1097 13.2084C91.6896 13.5456 92.1218 13.9698 92.4063 14.481V12.8495H93.9163V21.7899H92.4063V20.1258C92.1109 20.6479 91.6677 21.0829 91.0769 21.431C90.4969 21.7681 89.8185 21.9367 89.0417 21.9367C88.2429 21.9367 87.5208 21.741 86.8752 21.3494C86.2296 20.9579 85.7208 20.4086 85.3488 19.7016C84.9768 18.9947 84.7908 18.1898 84.7908 17.2871ZM92.4063 17.3034C92.4063 16.6291 92.2695 16.0417 91.996 15.5414C91.7224 15.0411 91.3504 14.6604 90.8799 14.3994C90.4203 14.1275 89.9115 13.9915 89.3535 13.9915C88.7955 13.9915 88.2867 14.1221 87.8271 14.3831C87.3676 14.6441 87.001 15.0248 86.7275 15.5251C86.4539 16.0254 86.3171 16.6127 86.3171 17.2871C86.3171 17.9723 86.4539 18.5705 86.7275 19.0817C87.001 19.582 87.3676 19.9681 87.8271 20.24C88.2867 20.501 88.7955 20.6316 89.3535 20.6316C89.9115 20.6316 90.4203 20.501 90.8799 20.24C91.3504 19.9681 91.7224 19.582 91.996 19.0817C92.2695 18.5705 92.4063 17.9777 92.4063 17.3034Z" stroke="white" stroke-width="0.4" mask="url(#path-1-outside-1_0_57)"/>
<path d="M99.6243 21.9367C98.935 21.9367 98.3168 21.8225 97.7697 21.5941C97.2226 21.3548 96.7904 21.0285 96.4731 20.6152C96.1558 20.1911 95.9807 19.7071 95.9479 19.1633H97.4907C97.5344 19.6092 97.7423 19.9735 98.1144 20.2563C98.4973 20.5391 98.9952 20.6805 99.6079 20.6805C100.177 20.6805 100.626 20.5554 100.954 20.3053C101.282 20.0551 101.446 19.7397 101.446 19.359C101.446 18.9675 101.271 18.6793 100.921 18.4944C100.571 18.2986 100.029 18.1082 99.2961 17.9233C98.6286 17.7493 98.0815 17.5753 97.6548 17.4013C97.239 17.2164 96.8779 16.9499 96.5716 16.6019C96.2761 16.2429 96.1284 15.7753 96.1284 15.1988C96.1284 14.742 96.2652 14.3233 96.5387 13.9426C96.8123 13.5619 97.2007 13.2628 97.704 13.0453C98.2074 12.8169 98.7818 12.7027 99.4274 12.7027C100.423 12.7027 101.227 12.9528 101.84 13.4532C102.453 13.9535 102.781 14.6387 102.825 15.5088H101.331C101.298 15.0411 101.107 14.6659 100.757 14.3831C100.418 14.1003 99.9581 13.9589 99.3781 13.9589C98.842 13.9589 98.4153 14.0731 98.0979 14.3015C97.7806 14.5299 97.622 14.829 97.622 15.1988C97.622 15.4925 97.715 15.7372 97.901 15.933C98.0979 16.1179 98.3387 16.2701 98.6231 16.3898C98.9186 16.4985 99.3234 16.6236 99.8377 16.765C100.483 16.939 101.008 17.1131 101.413 17.2871C101.818 17.4502 102.163 17.7004 102.447 18.0375C102.743 18.3747 102.896 18.8152 102.907 19.359C102.907 19.8485 102.77 20.289 102.497 20.6805C102.223 21.0721 101.835 21.382 101.331 21.6104C100.839 21.828 100.27 21.9367 99.6243 21.9367Z" stroke="white" stroke-width="0.4" mask="url(#path-1-outside-1_0_57)"/>
<path d="M113.222 16.9771C113.222 17.2599 113.205 17.559 113.172 17.8744H105.984C106.038 18.7554 106.339 19.446 106.886 19.9463C107.444 20.4358 108.117 20.6805 108.905 20.6805C109.551 20.6805 110.087 20.5337 110.514 20.24C110.951 19.9355 111.258 19.533 111.433 19.0327H113.041C112.8 19.892 112.319 20.5935 111.597 21.1373C110.875 21.6703 109.977 21.9367 108.905 21.9367C108.052 21.9367 107.286 21.7464 106.607 21.3657C105.94 20.985 105.415 20.4467 105.032 19.7506C104.649 19.0436 104.457 18.2279 104.457 17.3034C104.457 16.3789 104.643 15.5686 105.015 14.8725C105.387 14.1764 105.907 13.6435 106.575 13.2737C107.253 12.893 108.03 12.7027 108.905 12.7027C109.759 12.7027 110.514 12.8876 111.17 13.2574C111.827 13.6272 112.33 14.1384 112.68 14.7909C113.041 15.4327 113.222 16.1614 113.222 16.9771ZM111.679 16.6671C111.679 16.1016 111.553 15.6176 111.301 15.2151C111.05 14.8018 110.705 14.4918 110.267 14.2852C109.841 14.0677 109.365 13.9589 108.839 13.9589C108.084 13.9589 107.439 14.1982 106.903 14.6767C106.378 15.1553 106.077 15.8188 106 16.6671H111.679Z" stroke="white" stroke-width="0.4" mask="url(#path-1-outside-1_0_57)"/>
<path d="M20.1653 23.612H27.4933C29.0716 23.612 30.3117 22.1839 30.3117 20.5177C30.3117 18.8516 29.0716 17.4234 27.4933 17.4234C26.9296 17.4234 26.3659 17.4234 25.8022 17.4234C28.057 12.306 26.9296 1 16.7832 1C10.0189 1 6.63677 5.16537 6.63677 13.6151H5.50939C3.02916 13.6151 0.999878 15.8763 0.999878 18.6135C0.999878 21.3508 3.02916 23.612 5.50939 23.612H11.1463H20.1653Z" stroke="white" stroke-width="2" stroke-linecap="round" stroke-linejoin="round"/>
<path d="M16.7329 12.1568L14.8325 12.7917L13.8844 9.95378L15.7555 9.32871C16.1442 9.19884 16.5576 9.22562 16.9209 9.4029L16.921 9.40295C17.2843 9.58002 17.5524 9.8854 17.6788 10.2637C17.8051 10.6419 17.7744 11.0468 17.5904 11.4067L17.5903 11.4069C17.4112 11.7582 17.1084 12.0233 16.7329 12.1568ZM12.5932 10.3845L12.9885 10.2524L15.3201 17.2317L14.9248 17.3637C14.6815 17.445 14.5419 17.7084 14.6252 17.9577C14.7085 18.207 14.9783 18.3335 15.2217 18.2523L16.8772 17.6992L17.0053 18.0829C17.0886 18.3322 17.3585 18.4588 17.6018 18.3775C17.8451 18.2962 17.9847 18.0328 17.9014 17.7835L17.7732 17.3998L18.1509 17.2736L18.2791 17.6573C18.3624 17.9066 18.6322 18.0332 18.8756 17.9519C19.1194 17.8705 19.258 17.6069 19.1749 17.3581L19.0466 16.9742C20.4348 16.4926 21.1939 14.9988 20.7319 13.616C20.3872 12.5842 19.4618 11.912 18.4336 11.8237C18.7173 11.2656 18.7875 10.6019 18.5746 9.9644C18.2237 8.91405 17.2168 8.26942 16.1529 8.31248L15.9931 7.83409L15.9931 7.83405C15.91 7.5853 15.6406 7.45836 15.3971 7.53972C15.154 7.62094 15.0141 7.88412 15.0973 8.13335L15.2258 8.51796L14.8481 8.64416L14.7196 8.25959C14.7196 8.25958 14.7196 8.25956 14.7196 8.25955C14.6363 8.01029 14.3663 7.88406 14.1233 7.96527C13.8802 8.04648 13.7403 8.30967 13.8236 8.5589L13.952 8.9435L13.453 9.11024L13.4528 9.10964L13.2156 9.18885L12.2963 9.49597C12.053 9.57727 11.9135 9.84064 11.9967 10.0899C12.08 10.3392 12.3498 10.4658 12.5932 10.3845ZM19.735 15.2258L19.735 15.2259C19.5245 15.6385 19.1646 15.9473 18.7193 16.0961L16.2159 16.9324L15.1295 13.6805L17.0005 13.0554C17.0131 13.0512 17.0252 13.0468 17.0341 13.0436L17.6327 12.8436C18.0779 12.6948 18.5513 12.7257 18.9677 12.9289L18.9678 12.9289C19.384 13.1318 19.6913 13.4818 19.8361 13.9152C19.981 14.3489 19.9457 14.813 19.735 15.2258Z" fill="white" stroke="white" stroke-width="0.5"/>
</svg>
