<svg width="13" height="11" viewBox="0 0 13 11" fill="none" xmlns="http://www.w3.org/2000/svg">
<path opacity="0.8" fill-rule="evenodd" clip-rule="evenodd" d="M12.6413 0.203358C12.1255 0.521259 11.5556 0.752459 10.9464 0.876165C10.4612 0.336932 9.76767 0 8.99988 0C7.52817 0 6.33379 1.24341 6.33379 2.77687C6.33379 2.99468 6.3567 3.20579 6.40252 3.40915C4.18592 3.2932 2.22098 2.189 0.904772 0.506809C0.674991 0.918458 0.543786 1.39601 0.543786 1.90458C0.543786 2.86745 1.01446 3.71754 1.73053 4.21553C1.29387 4.20214 0.881863 4.07597 0.521572 3.86944V3.90327C0.521572 5.24924 1.44104 6.37211 2.66215 6.62622C2.43861 6.69142 2.20259 6.7242 1.95927 6.7242C1.78745 6.7242 1.6198 6.70728 1.45736 6.67486C1.79682 7.77764 2.7812 8.58085 3.94851 8.60235C3.03598 9.34741 1.88533 9.79148 0.636115 9.79148C0.420912 9.79148 0.208139 9.7788 -0.00012207 9.75342C1.18002 10.5401 2.58266 11 4.08839 11C8.99467 11 11.6767 6.76931 11.6767 3.09936C11.6767 2.97847 11.6746 2.85793 11.6701 2.73951C12.1911 2.34795 12.6438 1.85912 12.9999 1.30227C12.5223 1.52289 12.0079 1.67233 11.4685 1.73929C12.0193 1.39601 12.4421 0.851847 12.6413 0.203358Z" fill="white"/>
</svg>
